# Blender v2.93.3 OBJ File: ''
# www.blender.org
mtllib package.mtl
o Box_Cube.002
v -1.500000 -1.000000 1.000000
v -1.500000 1.000000 1.000000
v -1.500000 -1.000000 -1.000000
v -1.500000 1.000000 -1.000000
v 1.500000 -1.000000 1.000000
v 1.500000 1.000000 1.000000
v 1.500000 -1.000000 -1.000000
v 1.500000 1.000000 -1.000000
v -1.812593 0.000000 1.208395
v -1.812593 0.000000 -1.208395
v 1.812593 0.000000 -1.208395
v 1.812593 0.000000 1.208395
v 0.000000 -0.737437 -0.812229
v 0.000000 0.917519 -0.772592
v 0.000000 -0.737437 0.812229
v 0.000000 0.917519 0.772592
v 0.000000 0.000000 0.998126
v 0.000000 0.000000 -0.998126
v -1.422886 -0.929700 0.000000
v -1.422886 0.929700 0.000000
v 1.422886 -0.929700 0.000000
v 1.422886 0.929700 0.000000
v 1.771991 0.000000 0.000000
v -1.771991 0.000000 0.000000
v 0.000000 0.928232 0.000000
v 0.000000 -0.923744 0.000000
vt 0.500000 0.125000
vt 0.625000 0.125000
vt 0.625000 0.250000
vt 0.500000 0.250000
vt 0.500000 0.375000
vt 0.625000 0.375000
vt 0.625000 0.500000
vt 0.500000 0.500000
vt 0.500000 0.625000
vt 0.625000 0.625000
vt 0.625000 0.750000
vt 0.500000 0.750000
vt 0.500000 0.875000
vt 0.625000 0.875000
vt 0.625000 1.000000
vt 0.500000 1.000000
vt 0.250000 0.625000
vt 0.375000 0.625000
vt 0.375000 0.750000
vt 0.250000 0.750000
vt 0.750000 0.625000
vt 0.875000 0.625000
vt 0.875000 0.750000
vt 0.750000 0.750000
vt 0.375000 0.875000
vt 0.375000 1.000000
vt 0.375000 0.375000
vt 0.375000 0.500000
vt 0.375000 0.125000
vt 0.375000 0.250000
vt 0.125000 0.625000
vt 0.125000 0.750000
vt 0.125000 0.500000
vt 0.250000 0.500000
vt 0.750000 0.500000
vt 0.375000 0.000000
vt 0.500000 0.000000
vt 0.875000 0.500000
vt 0.625000 0.000000
vn -0.9462 0.3179 0.0606
vn -0.1332 0.1980 -0.9711
vn 0.9462 0.3179 -0.0606
vn 0.1332 0.1980 0.9711
vn -0.0956 -0.9931 0.0676
vn 0.0262 0.9991 -0.0324
vn 0.1323 -0.1967 0.9715
vn 0.9462 -0.3179 -0.0606
vn -0.1323 -0.1967 -0.9715
vn -0.9462 -0.3179 0.0606
vn 0.1323 -0.1967 -0.9715
vn -0.1323 -0.1967 0.9715
vn -0.0262 0.9991 -0.0324
vn 0.0956 -0.9931 0.0676
vn -0.1332 0.1980 0.9711
vn 0.1332 0.1980 -0.9711
vn 0.0956 -0.9931 -0.0676
vn -0.0262 0.9991 0.0324
vn -0.9462 -0.3179 -0.0606
vn 0.9462 -0.3179 0.0606
vn 0.0262 0.9991 0.0324
vn -0.0956 -0.9931 -0.0676
vn 0.9462 0.3179 0.0606
vn -0.9462 0.3179 -0.0606
usemtl Default
s off
f 24/1/1 20/2/1 4/3/1 10/4/1
f 18/5/2 14/6/2 8/7/2 11/8/2
f 23/9/3 22/10/3 6/11/3 12/12/3
f 17/13/4 16/14/4 2/15/4 9/16/4
f 26/17/5 21/18/5 5/19/5 15/20/5
f 25/21/6 20/22/6 2/23/6 16/24/6
f 15/25/7 17/13/7 9/16/7 1/26/7
f 21/18/8 23/9/8 12/12/8 5/19/8
f 13/27/9 18/5/9 11/8/9 7/28/9
f 19/29/10 24/1/10 10/4/10 3/30/10
f 3/30/11 10/4/11 18/5/11 13/27/11
f 5/19/12 12/12/12 17/13/12 15/25/12
f 22/10/13 25/21/13 16/24/13 6/11/13
f 19/31/14 26/17/14 15/20/14 1/32/14
f 12/12/15 6/11/15 16/14/15 17/13/15
f 10/4/16 4/3/16 14/6/16 18/5/16
f 3/33/17 13/34/17 26/17/17 19/31/17
f 8/7/18 14/35/18 25/21/18 22/10/18
f 1/36/19 9/37/19 24/1/19 19/29/19
f 7/28/20 11/8/20 23/9/20 21/18/20
f 14/35/21 4/38/21 20/22/21 25/21/21
f 13/34/22 7/28/22 21/18/22 26/17/22
f 11/8/23 8/7/23 22/10/23 23/9/23
f 9/37/24 2/39/24 20/2/24 24/1/24
o TapeX_Cube.003
v -1.532753 -0.785612 0.113595
v -1.541062 0.790988 0.105386
v -1.532753 -0.785612 -0.113595
v -1.541062 0.790988 -0.105386
v 1.532753 -0.785612 0.113595
v 1.541062 0.790988 0.105386
v 1.532753 -0.785612 -0.113595
v 1.541062 0.790988 -0.105386
v -1.828175 0.000000 0.182818
v -1.828175 0.000000 -0.182818
v 1.828175 0.000000 -0.182818
v 1.828175 0.000000 0.182818
v 0.000000 -0.661726 -0.072338
v 0.000000 0.738323 -0.094212
v 0.000000 -0.661726 0.072338
v 0.000000 0.738323 0.094212
v 0.000000 0.000259 0.185214
v 0.000000 0.000259 -0.185214
v -1.272488 -1.000385 0.075052
v -1.272488 -1.000385 -0.075052
v 1.272488 -1.000385 0.075052
v 1.272488 -1.000385 -0.075052
v 0.000000 -0.953811 -0.066505
v 0.000000 -0.953811 0.066505
v 0.000000 -0.796806 0.066218
v 1.492827 -0.898480 0.108057
v 0.000000 -0.796806 -0.066218
v -1.492827 -0.898480 -0.108057
v -1.492827 -0.898480 0.108057
v 1.492827 -0.898480 -0.108057
v 0.000000 -0.865307 0.062962
v 0.000000 -0.865307 -0.062962
v -1.475939 -0.954433 0.105608
v 1.475939 -0.954433 -0.105608
v 1.475939 -0.954433 0.105608
v -1.475939 -0.954433 -0.105608
v -1.484513 0.900505 0.097496
v -1.390464 0.981696 0.094054
v -1.390464 0.981696 -0.094054
v -1.484513 0.900505 -0.097496
v 1.390464 0.981696 0.094054
v 1.484513 0.900505 0.097496
v 1.390464 0.981696 -0.094054
v 1.484513 0.900505 -0.097496
v 0.000000 0.849845 -0.094212
v -0.217499 0.966451 -0.073931
v 0.217499 0.966451 -0.073931
v 0.000000 0.849845 0.094212
v 0.217499 0.966451 0.073931
v -0.217499 0.966451 0.073931
vt 0.500000 0.000000
vt 0.625000 0.000000
vt 0.625000 0.250000
vt 0.500000 0.250000
vt 0.500000 0.375000
vt 0.625000 0.375000
vt 0.625000 0.500000
vt 0.500000 0.500000
vt 0.625000 0.750000
vt 0.500000 0.750000
vt 0.500000 0.875000
vt 0.625000 0.875000
vt 0.625000 1.000000
vt 0.500000 1.000000
vt 0.375000 0.250000
vt 0.375000 0.375000
vt 0.375000 0.375000
vt 0.375000 0.250000
vt 0.625000 0.500000
vt 0.625000 0.750000
vt 0.375000 0.875000
vt 0.375000 1.000000
vt 0.375000 0.500000
vt 0.375000 0.750000
vt 0.375000 0.375000
vt 0.375000 0.000000
vt 0.375000 0.250000
vt 0.625000 0.375000
vt 0.375000 0.750000
vt 0.375000 0.875000
vt 0.375000 0.875000
vt 0.375000 0.750000
vt 0.250000 0.500000
vt 0.375000 0.500000
vt 0.250000 0.750000
vt 0.125000 0.500000
vt 0.125000 0.750000
vt 0.375000 1.000000
vt 0.375000 1.000000
vt 0.375000 0.000000
vt 0.375000 0.000000
vt 0.375000 0.500000
vt 0.375000 0.750000
vt 0.375000 0.500000
vt 0.375000 0.375000
vt 0.375000 0.250000
vt 0.375000 0.000000
vt 0.375000 1.000000
vt 0.375000 0.875000
vt 0.625000 0.875000
vt 0.625000 1.000000
vt 0.642642 0.526608
vt 0.732358 0.528146
vt 0.732358 0.721854
vt 0.642642 0.723392
vt 0.767642 0.528146
vt 0.857358 0.526608
vt 0.857358 0.723392
vt 0.767642 0.721854
vt 0.625000 0.250000
vt 0.748795 0.500006
vt 0.766369 0.500000
vt 0.750000 0.526908
vt 0.751205 0.749994
vt 0.733631 0.750000
vt 0.750000 0.723092
vt 0.875000 0.500000
vt 0.875000 0.750000
vt 0.626199 0.500000
vt 0.750000 0.500000
vt 0.873801 0.750000
vt 0.750000 0.750000
vt 0.873801 0.500000
vt 0.626199 0.750000
vt 0.625000 0.000000
vn -0.9400 0.3412 0.0000
vn -0.0043 0.1087 -0.9941
vn 0.9400 0.3412 0.0000
vn 0.0043 0.1087 0.9941
vn 0.0262 -0.1586 -0.9870
vn 0.8885 0.4588 0.0000
vn 0.0160 -0.1216 0.9925
vn 0.9360 -0.3520 0.0000
vn -0.0160 -0.1216 -0.9925
vn -0.9360 -0.3520 0.0000
vn 0.0160 -0.1216 -0.9925
vn -0.0160 -0.1216 0.9925
vn -0.0059 0.0342 -0.9994
vn -0.0262 -0.1586 0.9870
vn -0.0043 0.1087 0.9941
vn 0.0043 0.1087 -0.9941
vn -0.0366 -0.9993 0.0000
vn 0.0366 -0.9993 0.0000
vn 0.0262 -0.1586 0.9870
vn -0.2203 -0.9754 0.0000
vn -0.0262 -0.1586 -0.9870
vn 0.2203 -0.9754 0.0000
vn 0.9428 -0.3335 0.0000
vn -0.0306 -0.0420 -0.9986
vn -0.9428 -0.3335 0.0000
vn 0.0306 -0.0420 0.9986
vn -0.0306 -0.0420 0.9986
vn 0.0306 -0.0420 -0.9986
vn 0.9573 -0.2889 0.0000
vn -0.0311 -0.0416 -0.9987
vn -0.9573 -0.2889 0.0000
vn 0.0311 -0.0416 0.9987
vn -0.0311 -0.0416 0.9987
vn 0.0311 -0.0416 -0.9987
vn 0.0059 0.0342 0.9994
vn -0.0059 0.0342 0.9994
vn -0.0130 0.9999 0.0000
vn 0.0130 0.9999 0.0000
vn 0.0059 0.0342 -0.9994
vn 0.0000 0.1714 -0.9852
vn -0.0000 0.1714 0.9852
vn -0.6535 0.7570 0.0000
vn -0.0119 0.1264 -0.9919
vn 0.6535 0.7570 0.0000
vn 0.0119 0.1264 0.9919
vn 0.0119 0.1264 -0.9919
vn -0.0119 0.1264 0.9919
vn 0.0000 1.0000 0.0000
vn -0.8885 0.4588 0.0000
usemtl Material
s off
f 35/40/25 28/41/25 30/42/25 36/43/25
f 44/44/26 40/45/26 34/46/26 37/47/26
f 37/47/27 34/46/27 32/48/27 38/49/27
f 43/50/28 42/51/28 28/52/28 35/53/28
f 62/54/29 58/55/29 49/56/29 46/57/29
f 32/48/30 34/46/30 70/58/30 68/59/30
f 41/60/31 43/50/31 35/53/31 27/61/31
f 33/62/32 37/47/32 38/49/32 31/63/32
f 39/64/33 44/44/33 37/47/33 33/62/33
f 27/65/34 35/40/34 36/43/34 29/66/34
f 29/66/35 36/43/35 44/44/35 39/64/35
f 31/63/36 38/49/36 43/50/36 41/60/36
f 34/46/37 40/45/37 71/67/37 70/58/37
f 61/68/38 57/69/38 50/70/38 47/71/38
f 38/49/39 32/48/39 42/51/39 43/50/39
f 36/43/40 30/42/40 40/45/40 44/44/40
f 49/72/41 48/73/41 47/71/41 50/74/41
f 46/75/42 49/72/42 50/74/42 45/76/42
f 57/69/43 59/77/43 45/78/43 50/70/43
f 59/79/44 62/54/44 46/57/44 45/80/44
f 58/55/45 60/81/45 48/73/45 49/56/45
f 60/81/46 61/68/46 47/71/46 48/73/46
f 33/62/47 31/63/47 52/82/47 56/83/47
f 39/64/48 33/62/48 56/83/48 53/84/48
f 27/65/49 29/66/49 54/85/49 55/86/49
f 41/60/50 27/61/50 55/87/50 51/88/50
f 31/63/51 41/60/51 51/88/51 52/82/51
f 29/66/52 39/64/52 53/84/52 54/85/52
f 56/83/53 52/82/53 61/68/53 60/81/53
f 53/84/54 56/83/54 60/81/54 58/55/54
f 55/86/55 54/85/55 62/54/55 59/79/55
f 51/88/56 55/87/56 59/77/56 57/69/56
f 52/82/57 51/88/57 57/69/57 61/68/57
f 54/85/58 53/84/58 58/55/58 62/54/58
f 28/52/59 42/51/59 74/89/59 63/90/59
f 42/51/60 32/48/60 68/59/60 74/89/60
f 69/91/61 73/92/61 75/93/61 67/94/61
f 72/95/62 65/96/62 64/97/62 76/98/62
f 40/45/63 30/42/63 66/99/63 71/67/63
f 71/100/64 72/101/64 73/102/64
f 74/103/65 75/104/65 76/105/65
f 64/97/66 65/96/66 66/106/66 63/107/66
f 73/92/67 69/91/67 70/108/67 71/109/67
f 69/91/68 67/94/68 68/59/68 70/58/68
f 76/98/69 64/97/69 63/110/69 74/111/69
f 65/96/70 72/95/70 71/109/70 66/112/70
f 67/94/71 75/93/71 74/111/71 68/113/71
f 72/95/72 76/98/72 75/93/72 73/92/72
f 30/42/73 28/41/73 63/114/73 66/99/73
o TapeY_Cube.004
v -0.216165 0.000000 1.080823
v -0.216165 0.000000 -1.080823
v 0.216165 0.000000 -1.080823
v 0.216165 0.000000 1.080823
v -0.192348 -0.980855 0.000106
v -0.186336 0.968527 0.000000
v 0.192348 -0.980855 0.000106
v 0.186336 0.968527 0.000000
v 0.220013 -0.002537 0.000000
v -0.220013 -0.002537 0.000000
v -0.141779 -0.794434 0.672427
v -0.175259 -0.791872 0.870956
v -0.179040 -0.811303 -0.890610
v -0.147256 -0.853948 -0.685059
v 0.175259 -0.791872 0.870956
v 0.141779 -0.794434 0.672427
v 0.147256 -0.853948 -0.685059
v 0.179040 -0.811303 -0.890610
v -0.141368 0.730135 0.890586
v -0.183585 0.956423 0.826338
v -0.183585 0.956423 -0.826338
v -0.141368 0.730135 -0.890586
v 0.183585 0.956423 0.826338
v 0.141368 0.730135 0.890586
v 0.141368 0.730135 -0.890586
v 0.183585 0.956423 -0.826338
vt 0.500000 0.625000
vt 0.625000 0.625000
vt 0.625000 0.735051
vt 0.610463 0.750000
vt 0.500000 0.750000
vt 0.500000 0.125000
vt 0.625000 0.125000
vt 0.625000 0.235051
vt 0.610463 0.250000
vt 0.500000 0.250000
vt 0.500000 0.500000
vt 0.610463 0.500000
vt 0.625000 0.514949
vt 0.875000 0.625000
vt 0.875000 0.735051
vt 0.390319 0.750000
vt 0.500000 1.000000
vt 0.390319 1.000000
vt 0.875000 0.514949
vt 0.375000 0.125000
vt 0.390319 0.250000
vt 0.375000 0.233199
vt 0.375000 0.516801
vt 0.390319 0.500000
vt 0.375000 0.625000
vt 0.125000 0.516801
vt 0.125000 0.625000
vt 0.375000 0.733199
vt 0.125000 0.733199
vt 0.610463 1.000000
vt 0.125000 0.500000
vt 0.375000 0.500000
vt 0.375000 0.750000
vt 0.125000 0.750000
vt 0.375000 0.016801
vt 0.390319 0.000000
vt 0.500000 0.000000
vt 0.625000 0.250000
vt 0.625000 0.500000
vt 0.625000 0.750000
vt 0.625000 1.000000
vt 0.610463 0.000000
vt 0.625000 0.014949
vn 0.9987 0.0417 0.0295
vn -0.9987 0.0417 -0.0295
vn 0.9987 0.0417 -0.0295
vn 0.0000 0.9999 0.0146
vn 0.0000 -0.2562 0.9666
vn 0.0000 0.9999 -0.0146
vn -0.9984 -0.0551 -0.0153
vn 0.9984 -0.0551 -0.0153
vn 0.0000 -0.9833 -0.1821
vn 0.0000 -0.2283 -0.9736
vn 0.0000 -0.9636 0.2672
vn 0.0000 0.2521 -0.9677
vn 0.9980 -0.0607 0.0188
vn 0.0000 0.2521 0.9677
vn 0.0000 -0.9791 -0.2031
vn 0.0000 -0.9999 0.0129
vn -0.9980 -0.0607 0.0188
vn 0.0000 0.2731 -0.9620
vn 0.0000 0.2731 0.9620
vn -0.9987 0.0417 0.0295
usemtl Material
s off
f 85/115/74 84/116/74 99/117/74 100/118/74 80/119/74
f 86/120/75 82/121/75 97/122/75 98/123/75 78/124/75
f 79/125/76 101/126/76 102/127/76 84/116/76 85/115/76
f 84/116/77 82/128/77 96/129/77 99/117/77
f 91/130/78 80/119/78 77/131/78 88/132/78
f 102/127/79 97/133/79 82/128/79 84/116/79
f 81/134/80 86/120/80 78/124/80 89/135/80 90/136/80
f 93/137/81 94/138/81 79/125/81 85/115/81 83/139/81
f 90/140/82 93/137/82 83/139/82 81/141/82
f 89/135/83 78/124/83 79/125/83 94/138/83
f 81/141/84 83/139/84 92/142/84 87/143/84
f 78/124/85 98/123/85 101/126/85 79/125/85
f 83/139/86 85/115/86 80/119/86 91/130/86 92/142/86
f 80/119/87 100/118/87 95/144/87 77/131/87
f 93/137/88 90/140/88 89/145/88 94/146/88
f 87/143/89 92/142/89 91/147/89 88/148/89
f 87/149/90 88/150/90 77/151/90 86/120/90 81/134/90
f 97/152/91 102/153/91 101/126/91 98/123/91
f 99/154/92 96/155/92 95/144/92 100/118/92
f 77/151/93 95/156/93 96/157/93 82/121/93 86/120/93
